<svg width="9" height="9" viewBox="0 0 9 9" fill="none" xmlns="http://www.w3.org/2000/svg">
<path fill-rule="evenodd" clip-rule="evenodd" d="M5.16778 3.23245C4.9064 3.07158 4.69297 2.94023 4.517 2.85372C4.34018 2.7668 4.15605 2.70123 3.96227 2.72294C3.68218 2.75432 3.43351 2.91028 3.27453 3.14354C3.16663 3.30185 3.12886 3.49399 3.11128 3.69832C3.09374 3.90203 3.09375 4.16312 3.09375 4.48652V4.51347C3.09375 4.83686 3.09374 5.09797 3.11128 5.30168C3.12886 5.50601 3.16663 5.69815 3.27453 5.85646C3.43351 6.08972 3.68218 6.24568 3.96227 6.27706C4.15605 6.29877 4.34018 6.2332 4.517 6.14628C4.69298 6.05977 4.9064 5.92842 5.16779 5.76754L5.19253 5.75232C5.45417 5.5913 5.66753 5.46 5.82557 5.34098C5.98602 5.22014 6.12513 5.08668 6.1998 4.9079C6.3084 4.64789 6.3084 4.35211 6.1998 4.0921C6.12513 3.91332 5.98602 3.77986 5.82557 3.65902C5.66753 3.54 5.45418 3.4087 5.19255 3.24769L5.16778 3.23245ZM4.0249 3.28195C4.05433 3.27865 4.11784 3.28429 4.26884 3.35852C4.41791 3.4318 4.60852 3.54876 4.88548 3.71921C5.16232 3.88958 5.35282 4.00717 5.48718 4.10835C5.62158 4.20957 5.66414 4.26911 5.68076 4.3089C5.73141 4.43018 5.73141 4.56982 5.68076 4.6911C5.66414 4.73089 5.62158 4.79043 5.48718 4.89165C5.35282 4.99283 5.16232 5.11042 4.88548 5.28079C4.60852 5.45124 4.41791 5.5682 4.26884 5.64148C4.11784 5.71571 4.05433 5.72135 4.0249 5.71805C3.91558 5.70581 3.81049 5.64406 3.73933 5.53965C3.7153 5.5044 3.6871 5.43234 3.67171 5.25345C3.6565 5.07677 3.65625 4.84004 3.65625 4.5C3.65625 4.15996 3.6565 3.92323 3.67171 3.74655C3.6871 3.56766 3.7153 3.4956 3.73933 3.46035C3.81049 3.35594 3.91558 3.29419 4.0249 3.28195Z" fill="#FAFAFA"/>
<path fill-rule="evenodd" clip-rule="evenodd" d="M6.17382 0.890148C5.74552 0.843745 5.20567 0.843747 4.51697 0.84375H4.48303C3.79433 0.843747 3.25448 0.843745 2.82618 0.890148C2.3891 0.937502 2.03496 1.03587 1.73259 1.25556C1.54953 1.38855 1.38855 1.54953 1.25556 1.73259C1.03587 2.03496 0.937502 2.3891 0.890148 2.82618C0.843745 3.25448 0.843747 3.79433 0.84375 4.48303V4.51697C0.843747 5.20567 0.843745 5.74552 0.890148 6.17382C0.937502 6.6109 1.03587 6.96504 1.25556 7.26741C1.38855 7.45047 1.54953 7.61145 1.73259 7.74444C2.03496 7.96413 2.3891 8.0625 2.82618 8.10985C3.25447 8.15625 3.79431 8.15625 4.48299 8.15625H4.51698C5.20566 8.15625 5.74553 8.15625 6.17382 8.10985C6.6109 8.0625 6.96504 7.96413 7.26741 7.74444C7.45047 7.61145 7.61145 7.45047 7.74444 7.26741C7.96413 6.96504 8.0625 6.6109 8.10985 6.17382C8.15625 5.74553 8.15625 5.20569 8.15625 4.51701V4.48302C8.15625 3.79434 8.15625 3.25447 8.10985 2.82618C8.0625 2.3891 7.96413 2.03496 7.74444 1.73259C7.61145 1.54953 7.45047 1.38855 7.26741 1.25556C6.96504 1.03587 6.6109 0.937502 6.17382 0.890148ZM2.06322 1.71063C2.25372 1.57222 2.49755 1.49154 2.88677 1.44938C3.28125 1.40664 3.79066 1.40625 4.5 1.40625C5.20934 1.40625 5.71875 1.40664 6.11323 1.44938C6.50245 1.49154 6.74628 1.57222 6.93678 1.71063C7.07208 1.80893 7.19107 1.92792 7.28937 2.06322C7.42778 2.25372 7.50846 2.49755 7.55062 2.88677C7.59336 3.28125 7.59375 3.79066 7.59375 4.5C7.59375 5.20934 7.59336 5.71875 7.55062 6.11323C7.50846 6.50245 7.42778 6.74628 7.28937 6.93678C7.19107 7.07208 7.07208 7.19107 6.93678 7.28937C6.74628 7.42778 6.50245 7.50846 6.11323 7.55062C5.71875 7.59336 5.20934 7.59375 4.5 7.59375C3.79066 7.59375 3.28125 7.59336 2.88677 7.55062C2.49755 7.50846 2.25372 7.42778 2.06322 7.28937C1.92792 7.19107 1.80893 7.07208 1.71063 6.93678C1.57222 6.74628 1.49154 6.50245 1.44938 6.11323C1.40664 5.71875 1.40625 5.20934 1.40625 4.5C1.40625 3.79066 1.40664 3.28125 1.44938 2.88677C1.49154 2.49755 1.57222 2.25372 1.71063 2.06322C1.80893 1.92792 1.92792 1.80893 2.06322 1.71063Z" fill="#FAFAFA"/>
</svg>
