<svg width="8" height="15" viewBox="0 0 8 15" fill="none" xmlns="http://www.w3.org/2000/svg">
<path d="M0.99981 14.9999C0.766158 15.0004 0.539722 14.919 0.35981 14.7699C0.155303 14.6004 0.0266622 14.3564 0.00227313 14.0919C-0.022116 13.8274 0.0597511 13.564 0.22981 13.3599L4.70981 7.99994L0.38981 2.62994C0.22204 2.42335 0.143541 2.1584 0.171694 1.89376C0.199848 1.62912 0.33233 1.38662 0.53981 1.21994C0.748977 1.03591 1.02544 0.94747 1.30258 0.975943C1.57973 1.00442 1.83243 1.14722 1.99981 1.36994L6.82981 7.36994C7.13313 7.73895 7.13313 8.27094 6.82981 8.63994L1.82981 14.6399C1.62635 14.8854 1.31805 15.0191 0.99981 14.9999Z" fill="white"/>
</svg>
