<svg width="12" height="17" viewBox="0 0 12 17" fill="none" xmlns="http://www.w3.org/2000/svg">
<path fill-rule="evenodd" clip-rule="evenodd" d="M5.8999 0.9375C3.93239 0.9375 2.3374 2.53249 2.3374 4.5C2.3374 6.46751 3.93239 8.0625 5.8999 8.0625C7.86742 8.0625 9.4624 6.46751 9.4624 4.5C9.4624 2.53249 7.86742 0.9375 5.8999 0.9375ZM3.4624 4.5C3.4624 3.15381 4.55371 2.0625 5.8999 2.0625C7.2461 2.0625 8.3374 3.15381 8.3374 4.5C8.3374 5.84619 7.2461 6.9375 5.8999 6.9375C4.55371 6.9375 3.4624 5.84619 3.4624 4.5Z" fill=""/>
<path fill-rule="evenodd" clip-rule="evenodd" d="M3.6499 9.1875C1.68239 9.1875 0.0874023 10.7825 0.0874023 12.75C0.0874023 14.7175 1.68239 16.3125 3.6499 16.3125H8.1499C10.1174 16.3125 11.7124 14.7175 11.7124 12.75C11.7124 10.7825 10.1174 9.1875 8.1499 9.1875H3.6499ZM1.2124 12.75C1.2124 11.4038 2.30371 10.3125 3.6499 10.3125H8.1499C9.4961 10.3125 10.5874 11.4038 10.5874 12.75C10.5874 14.0962 9.4961 15.1875 8.1499 15.1875H3.6499C2.30371 15.1875 1.2124 14.0962 1.2124 12.75Z" fill=""/>
</svg>
