<svg width="16" height="16" viewBox="0 0 16 16" fill="none" xmlns="http://www.w3.org/2000/svg">
<path fill-rule="evenodd" clip-rule="evenodd" d="M7.3335 0.165894C3.74365 0.165894 0.833496 3.07604 0.833496 6.66589C0.833496 10.2557 3.74365 13.1659 7.3335 13.1659C10.9233 13.1659 13.8335 10.2557 13.8335 6.66589C13.8335 3.07604 10.9233 0.165894 7.3335 0.165894ZM1.8335 6.66589C1.8335 3.62833 4.29593 1.16589 7.3335 1.16589C10.3711 1.16589 12.8335 3.62833 12.8335 6.66589C12.8335 9.70346 10.3711 12.1659 7.3335 12.1659C4.29593 12.1659 1.8335 9.70346 1.8335 6.66589Z" fill="white"/>
<path d="M13.0204 11.6457C12.8252 11.4505 12.5086 11.4505 12.3133 11.6457C12.1181 11.841 12.1181 12.1576 12.3133 12.3528L14.9799 15.0195C15.1752 15.2147 15.4918 15.2147 15.687 15.0195C15.8823 14.8242 15.8823 14.5076 15.687 14.3124L13.0204 11.6457Z" fill="white"/>
</svg>
