<svg width="16" height="16" viewBox="0 0 16 16" fill="none" xmlns="http://www.w3.org/2000/svg">
<path d="M3.33317 5.50002C3.05703 5.50002 2.83317 5.72388 2.83317 6.00002C2.83317 6.27616 3.05703 6.50002 3.33317 6.50002H5.99984C6.27598 6.50002 6.49984 6.27616 6.49984 6.00002C6.49984 5.72388 6.27598 5.50002 5.99984 5.50002H3.33317Z" fill="#FAFAFA"/>
<path fill-rule="evenodd" clip-rule="evenodd" d="M8.22988 2.21376C7.65365 2.16668 6.93669 2.16668 6.02221 2.16669H5.97746C5.06298 2.16668 4.34603 2.16668 3.76979 2.21376C3.18303 2.2617 2.69829 2.36094 2.25954 2.5845C1.53825 2.95201 0.951827 3.53844 0.584312 4.25972C0.360756 4.69848 0.261519 5.18322 0.213579 5.76998C0.166498 6.34621 0.166501 7.06317 0.166504 7.97765V8.02239C0.166501 8.93687 0.166498 9.65383 0.213579 10.2301C0.261519 10.8168 0.360756 11.3016 0.584312 11.7403C0.951827 12.4616 1.53825 13.048 2.25954 13.4155C2.69829 13.6391 3.18303 13.7383 3.76979 13.7863C4.34602 13.8334 5.06296 13.8334 5.97742 13.8334H6.02222C6.93668 13.8334 7.65366 13.8334 8.22988 13.7863C8.81664 13.7383 9.30138 13.6391 9.74014 13.4155C10.4614 13.048 11.0478 12.4616 11.4154 11.7403C11.4487 11.6749 11.4793 11.6084 11.5074 11.5406C12.2852 11.8804 12.9221 12.1563 13.4391 12.2965C13.9891 12.4457 14.5248 12.4765 15.0037 12.1631C15.4825 11.8498 15.6689 11.3466 15.7524 10.7829C15.8332 10.2371 15.8332 9.51718 15.8332 8.63347V7.36657C15.8332 6.48286 15.8332 5.76293 15.7524 5.21713C15.6689 4.65348 15.4825 4.15029 15.0037 3.83693C14.5248 3.52358 13.9891 3.55432 13.4391 3.7035C12.9221 3.84376 12.2852 4.1196 11.5074 4.45942C11.4793 4.39168 11.4487 4.32518 11.4154 4.25972C11.0478 3.53844 10.4614 2.95201 9.74014 2.5845C9.30138 2.36094 8.81664 2.2617 8.22988 2.21376ZM11.799 10.5767L11.7522 10.5563C11.8332 9.92021 11.8332 9.12224 11.8332 8.07013V7.92997C11.8332 6.87789 11.8332 6.07983 11.7522 5.44375L11.799 5.42331C12.6567 5.04849 13.2485 4.79137 13.701 4.66862C14.1445 4.5483 14.3317 4.59232 14.4561 4.67372C14.5805 4.75511 14.6958 4.90907 14.7632 5.36365C14.8319 5.82744 14.8332 6.47261 14.8332 7.40871V8.59133C14.8332 9.52743 14.8319 10.1726 14.7632 10.6364C14.6958 11.091 14.5805 11.2449 14.4561 11.3263C14.3317 11.4077 14.1445 11.4517 13.701 11.3314C13.2485 11.2087 12.6567 10.9515 11.799 10.5767ZM2.71353 3.4755C2.98782 3.33575 3.32631 3.25333 3.85123 3.21044C4.38198 3.16708 5.05817 3.16669 5.99984 3.16669C6.94151 3.16669 7.61769 3.16708 8.14845 3.21044C8.67337 3.25333 9.01186 3.33575 9.28614 3.4755C9.81927 3.74714 10.2527 4.18059 10.5244 4.71371C10.602 4.86616 10.6618 5.03818 10.7069 5.24965C10.8304 5.82846 10.8332 6.62504 10.8332 8.00002C10.8332 9.37473 10.8304 10.1713 10.707 10.7501C10.6618 10.9617 10.6021 11.1338 10.5244 11.2863C10.2527 11.8195 9.81927 12.2529 9.28614 12.5245C9.01186 12.6643 8.67337 12.7467 8.14845 12.7896C7.61769 12.833 6.94151 12.8334 5.99984 12.8334C5.05817 12.8334 4.38198 12.833 3.85123 12.7896C3.32631 12.7467 2.98782 12.6643 2.71353 12.5245C2.18041 12.2529 1.74696 11.8195 1.47532 11.2863C1.33556 11.012 1.25315 10.6736 1.21026 10.1486C1.16689 9.61787 1.1665 8.94169 1.1665 8.00002C1.1665 7.05835 1.16689 6.38217 1.21026 5.85141C1.25315 5.32649 1.33556 4.988 1.47532 4.71371C1.74696 4.18059 2.18041 3.74714 2.71353 3.4755Z" fill="#FAFAFA"/>
</svg>
